<svg viewBox = "0 0 88 88" width="88" height="88" xmlns="http://www.w3.org/2000/svg"><g transform="matrix(1 0 0 1 44 44)"  ><g style=""   ><g transform="matrix(1 0 0 1 -8 -7.17)"  ><path style="stroke: none; stroke-width: 1; stroke-dasharray: none; stroke-linecap: butt; stroke-dashoffset: 0; stroke-linejoin: miter; stroke-miterlimit: 4; fill: rgb(109,49,237); fill-rule: nonzero; opacity: 1;"  transform=" translate(-36, -36.83)" d="M 33.1715 22.8284 C 34.7336 21.2663 37.2663 21.2663 38.8284 22.8284 L 51.9999 36 L 35.9999 52 L 19.9999 36 L 33.1715 22.8284 Z" stroke-linecap="round" /></g><g transform="matrix(1 0 0 1 23.17 -7.17)"  ><path style="stroke: none; stroke-width: 1; stroke-dasharray: none; stroke-linecap: butt; stroke-dashoffset: 0; stroke-linejoin: miter; stroke-miterlimit: 4; fill: rgb(21,171,255); fill-rule: nonzero; opacity: 1;"  transform=" translate(-67.17, -36.83)" d="M 65.1716 22.8284 C 66.7337 21.2663 69.2663 21.2663 70.8284 22.8284 L 81.1716 33.1716 C 82.7337 34.7337 82.7337 37.2663 81.1716 38.8284 L 68 52 L 52 36 L 65.1716 22.8284 Z" stroke-linecap="round" /></g><g transform="matrix(1 0 0 1 -23.17 7.17)"  ><path style="stroke: none; stroke-width: 1; stroke-dasharray: none; stroke-linecap: butt; stroke-dashoffset: 0; stroke-linejoin: miter; stroke-miterlimit: 4; fill: rgb(255,86,165); fill-rule: nonzero; opacity: 1;"  transform=" translate(-20.83, -51.17)" d="M 20 36.0001 L 36 52.0001 L 22.8284 65.1717 C 21.2663 66.7338 18.7337 66.7338 17.1716 65.1717 L 6.82843 54.8286 C 5.26633 53.2665 5.26633 50.7338 6.82843 49.1717 L 20 36.0001 Z" stroke-linecap="round" /></g><g transform="matrix(1 0 0 1 8 7.17)"  ><path style="stroke: none; stroke-width: 1; stroke-dasharray: none; stroke-linecap: butt; stroke-dashoffset: 0; stroke-linejoin: miter; stroke-miterlimit: 4; fill: rgb(255,211,23); fill-rule: nonzero; opacity: 1;"  transform=" translate(-52, -51.17)" d="M 51.9999 36.0001 L 67.9999 52.0001 L 54.8284 65.1717 C 53.2663 66.7338 50.7336 66.7338 49.1715 65.1717 L 35.9999 52.0001 L 51.9999 36.0001 Z" stroke-linecap="round" /></g></g></g></svg>