<svg viewBox = "0 0 88 88" width="88" height="88" xmlns="http://www.w3.org/2000/svg"><g transform="matrix(1 0 0 1 44 44)"  ><g style=""   ><g transform="matrix(1 0 0 1 -20 10.67)" clip-path="url(#CLIPPATH_585)"  ><clipPath id="CLIPPATH_585" ><rect transform="matrix(1 0 0 1 20 -10.67)" id="clip0_95_60" x="-40" y="-32" rx="0" ry="0" width="80" height="64" /></clipPath><path style="stroke: none; stroke-width: 1; stroke-dasharray: none; stroke-linecap: butt; stroke-dashoffset: 0; stroke-linejoin: miter; stroke-miterlimit: 4; fill: rgb(142,97,241); fill-rule: nonzero; opacity: 1;"  transform=" translate(-24, -54.67)" d="M 44.0027 76 L 4 54.665 L 4 33.3351 L 44.0027 54.665 L 44.0027 76 Z" stroke-linecap="round" /></g><g transform="matrix(1 0 0 1 -20 -10.67)" clip-path="url(#CLIPPATH_586)"  ><clipPath id="CLIPPATH_586" ><rect transform="matrix(1 0 0 1 20 10.67)" id="clip0_95_60" x="-40" y="-32" rx="0" ry="0" width="80" height="64" /></clipPath><path style="stroke: none; stroke-width: 1; stroke-dasharray: none; stroke-linecap: butt; stroke-dashoffset: 0; stroke-linejoin: miter; stroke-miterlimit: 4; fill: rgb(109,49,237); fill-rule: nonzero; opacity: 1;"  transform=" translate(-24, -33.33)" d="M 44.0027 12 L 4 33.3351 L 4 54.6649 L 44.0027 33.3351 L 44.0027 12 Z" stroke-linecap="round" /></g><g transform="matrix(1 0 0 1 20 -10.67)" clip-path="url(#CLIPPATH_587)"  ><clipPath id="CLIPPATH_587" ><rect transform="matrix(1 0 0 1 -20 10.67)" id="clip0_95_60" x="-40" y="-32" rx="0" ry="0" width="80" height="64" /></clipPath><path style="stroke: none; stroke-width: 1; stroke-dasharray: none; stroke-linecap: butt; stroke-dashoffset: 0; stroke-linejoin: miter; stroke-miterlimit: 4; fill: rgb(142,97,241); fill-rule: nonzero; opacity: 1;"  transform=" translate(-64, -33.33)" d="M 44.0027 12 L 84 33.3351 L 84 54.6649 L 44.0027 33.3351 L 44.0027 12 Z" stroke-linecap="round" /></g><g transform="matrix(1 0 0 1 20 10.67)" clip-path="url(#CLIPPATH_588)"  ><clipPath id="CLIPPATH_588" ><rect transform="matrix(1 0 0 1 -20 -10.67)" id="clip0_95_60" x="-40" y="-32" rx="0" ry="0" width="80" height="64" /></clipPath><path style="stroke: none; stroke-width: 1; stroke-dasharray: none; stroke-linecap: butt; stroke-dashoffset: 0; stroke-linejoin: miter; stroke-miterlimit: 4; fill: rgb(211,193,250); fill-rule: nonzero; opacity: 1;"  transform=" translate(-64, -54.67)" d="M 44.0027 76 L 84 54.665 L 84 33.3351 L 44.0027 54.665 L 44.0027 76 Z" stroke-linecap="round" /></g></g></g></svg>